<?xml version="1.0" encoding="utf-8"?>
<!-- Generator: Adobe Illustrator 16.0.0, SVG Export Plug-In . SVG Version: 6.00 Build 0)  -->
<!DOCTYPE svg PUBLIC "-//W3C//DTD SVG 1.1//EN" "http://www.w3.org/Graphics/SVG/1.1/DTD/svg11.dtd">
<svg version="1.1" id="Capa_1" xmlns="http://www.w3.org/2000/svg" xmlns:xlink="http://www.w3.org/1999/xlink" x="0px" y="0px"
	 width="603.333px" height="91.667px" viewBox="0 0 603.333 91.667" enable-background="new 0 0 603.333 91.667"
	 xml:space="preserve">
<g>
	<g>
		<path fill-rule="evenodd" clip-rule="evenodd" fill="#0057A7" d="M64.758,88.444l5.096,0.535c-0.34,0.496-0.88,0.911-1.619,1.243
			c-0.735,0.334-1.646,0.586-2.741,0.755c-1.09,0.169-2.478,0.255-4.164,0.255c-2.049,0-3.717-0.104-5.017-0.311
			c-1.296-0.206-2.412-0.57-3.354-1.09c-0.941-0.52-1.414-1.188-1.414-1.998c0-1.082,0.828-1.913,2.482-2.495
			c1.659-0.58,4.001-0.872,7.031-0.872c2.369,0,4.234,0.167,5.592,0.5c1.353,0.334,2.365,0.847,3.021,1.537l-5.123,0.396
			c-0.18-0.198-0.367-0.344-0.565-0.435c-0.328-0.153-0.727-0.272-1.195-0.355c-0.473-0.084-0.999-0.125-1.581-0.125
			c-1.322,0-2.334,0.185-3.034,0.552c-0.53,0.272-0.797,0.703-0.797,1.286c0,0.725,0.316,1.22,0.951,1.49
			c0.635,0.269,1.523,0.401,2.67,0.401c1.112,0,1.953-0.107,2.522-0.325C64.088,89.171,64.5,88.856,64.758,88.444L64.758,88.444z
			 M72.688,84.577h14.37v1.407H78.52v1.143h7.303v1.326H78.52v2.669h-5.833V84.577L72.688,84.577z M102.714,88.444l5.096,0.535
			c-0.341,0.496-0.88,0.911-1.62,1.243c-0.735,0.334-1.646,0.586-2.741,0.755c-1.089,0.169-2.478,0.255-4.163,0.255
			c-2.049,0-3.717-0.104-5.017-0.311c-1.297-0.206-2.413-0.57-3.354-1.09c-0.942-0.52-1.415-1.188-1.415-1.998
			c0-1.082,0.828-1.913,2.483-2.495c1.66-0.58,4.001-0.872,7.032-0.872c2.369,0,4.234,0.167,5.591,0.5
			c1.353,0.334,2.365,0.847,3.021,1.537l-5.123,0.396c-0.18-0.198-0.368-0.344-0.565-0.435c-0.329-0.153-0.727-0.272-1.195-0.355
			c-0.474-0.084-0.999-0.125-1.581-0.125c-1.323,0-2.334,0.185-3.034,0.552c-0.53,0.272-0.798,0.703-0.798,1.286
			c0,0.725,0.316,1.22,0.951,1.49c0.635,0.269,1.523,0.401,2.67,0.401c1.111,0,1.952-0.107,2.521-0.325
			C102.044,89.171,102.456,88.856,102.714,88.444z"/>
		<polygon fill-rule="evenodd" clip-rule="evenodd" fill="#0057A7" points="10.901,56.017 10.964,60.643 16.799,60.643 
			16.799,56.912 22.04,60.643 27.589,60.643 32.846,56.913 32.846,60.643 38.664,60.643 38.601,56.017 28.786,56.017 24.84,59.374 
			20.751,56.017 		"/>
		<polygon fill-rule="evenodd" clip-rule="evenodd" fill="#0057A7" points="109.788,1.427 40.923,55.802 40.923,85.859 104.3,35.5 
					"/>
		<polygon fill-rule="evenodd" clip-rule="evenodd" fill="#0057A7" points="2.186,3.255 40.923,33.887 40.923,50.781 5.271,22.445 
					"/>
	</g>
	<path fill-rule="evenodd" clip-rule="evenodd" fill="#0057A7" d="M136.413,34.029h12.702l2.726,18.961l6.965-18.961h12.644
		l-3.471,31.164h-7.878l2.646-23.757l-8.725,23.757h-7.138l-3.419-23.757l-2.645,23.757h-7.878L136.413,34.029L136.413,34.029z
		 M172.677,52.592l2.067-18.563h9.619l-2.117,19.005c-0.189,1.697,0.135,3.024,0.965,3.976c0.836,0.958,2.088,1.436,3.757,1.436
		c1.647,0,2.998-0.471,4.046-1.413c1.04-0.937,1.66-2.271,1.852-3.998l2.117-19.005l0,0h9.619l-2.067,18.563
		c-0.205,1.836-0.688,3.576-1.444,5.209c-0.755,1.639-1.814,3.067-3.177,4.294c-1.363,1.227-2.742,2.082-4.139,2.583
		c-1.948,0.688-4.236,1.037-6.855,1.037c-1.516,0-3.158-0.109-4.926-0.319s-3.223-0.631-4.357-1.263
		c-1.134-0.63-2.137-1.523-3.002-2.684c-0.872-1.161-1.42-2.357-1.653-3.591C172.608,55.878,172.506,54.124,172.677,52.592
		 M205.901,34.029h29.292l-0.858,7.704h-9.837l-2.612,23.46h-9.62l2.613-23.46h-9.836L205.901,34.029L205.901,34.029z
		 M256.914,34.029l-2.117,19.005c-0.192,1.728-0.813,3.062-1.853,3.998c-1.048,0.942-2.399,1.413-4.045,1.413
		c-1.668,0-2.921-0.478-3.757-1.436c-0.83-0.951-1.153-2.278-0.965-3.976l2.117-19.005h-9.619l-2.068,18.563
		c-0.17,1.531-0.069,3.286,0.306,5.267c0.232,1.233,0.781,2.43,1.652,3.591c0.865,1.16,1.868,2.054,3.002,2.684
		c1.134,0.632,2.589,1.053,4.357,1.263c1.769,0.21,3.41,0.319,4.926,0.319c2.619,0,4.907-0.349,6.855-1.037
		c1.397-0.501,2.777-1.356,4.139-2.583c1.363-1.227,2.422-2.655,3.178-4.294c0.755-1.633,1.238-3.373,1.443-5.209l2.066-18.563
		H256.914L256.914,34.029z M284.795,60.057h-10.911l-2.138,5.136h-9.83l15.201-31.164h10.54l8.208,31.164h-10.083L284.795,60.057
		L284.795,60.057z M283.508,53.31l-2.155-11.199l-4.664,11.199H283.508L283.508,53.31z M299.498,34.029h9.619l-2.618,23.503h15.06
		l-0.854,7.66h-24.678L299.498,34.029L299.498,34.029z M358.875,52.44l8.16,2.546c-0.829,2.365-1.942,4.346-3.345,5.927
		c-1.395,1.589-3.037,2.786-4.939,3.591c-1.896,0.807-4.241,1.212-7.034,1.212c-3.396,0-6.104-0.493-8.15-1.473
		c-2.037-0.986-3.692-2.721-4.978-5.194c-1.284-2.474-1.714-5.65-1.284-9.511c0.574-5.15,2.387-9.11,5.437-11.882
		c3.058-2.763,7.093-4.149,12.113-4.149c3.924,0,6.927,0.791,8.998,2.379c2.065,1.588,3.469,4.026,4.19,7.319l-8.697,1.879
		c-0.192-0.942-0.428-1.632-0.705-2.066c-0.462-0.733-1.06-1.299-1.792-1.69c-0.739-0.4-1.588-0.596-2.553-0.596
		c-2.191,0-3.964,0.878-5.319,2.627c-1.022,1.298-1.692,3.344-2.003,6.122c-0.384,3.453-0.125,5.811,0.785,7.094
		c0.909,1.277,2.311,1.915,4.211,1.915c1.843,0,3.293-0.515,4.352-1.552C357.38,55.908,358.229,54.406,358.875,52.44L358.875,52.44z
		 M387.415,60.057l0.987,5.136h10.084l-8.209-31.164h-10.541l-15.199,31.164h9.829l2.139-5.136H387.415L387.415,60.057z
		 M386.128,53.31h-6.819l4.663-11.199L386.128,53.31L386.128,53.31z M402.117,34.029h9.619l-2.617,23.503h15.06l-0.854,7.66h-24.679
		L402.117,34.029L402.117,34.029z M446.232,52.44l8.161,2.546c-0.829,2.365-1.942,4.346-3.345,5.927
		c-1.396,1.589-3.037,2.786-4.94,3.591c-1.896,0.807-4.24,1.212-7.033,1.212c-3.396,0-6.104-0.493-8.15-1.473
		c-2.037-0.986-3.694-2.721-4.978-5.194c-1.284-2.474-1.714-5.65-1.284-9.511c0.573-5.15,2.387-9.11,5.437-11.882
		c3.057-2.763,7.092-4.149,12.111-4.149c3.926,0,6.928,0.791,8.999,2.379c2.064,1.588,3.469,4.026,4.19,7.319l-8.696,1.879
		c-0.192-0.942-0.428-1.632-0.705-2.066c-0.463-0.733-1.061-1.299-1.793-1.69c-0.738-0.4-1.587-0.596-2.553-0.596
		c-2.19,0-3.963,0.878-5.319,2.627c-1.022,1.298-1.692,3.344-2.002,6.122c-0.385,3.453-0.125,5.811,0.784,7.094
		c0.909,1.277,2.311,1.915,4.212,1.915c1.842,0,3.292-0.515,4.351-1.552C444.736,55.908,445.585,54.406,446.232,52.44L446.232,52.44
		z M458.542,34.029l-3.472,31.164h9.62l1.405-12.622h10.533l-1.405,12.622h9.662l3.471-31.164h-9.663l-1.211,10.88h-10.534
		l1.213-10.88H458.542L458.542,34.029z M508.149,60.057h-10.911l-2.138,5.136h-9.83l15.201-31.164h10.54l8.208,31.164h-10.083
		L508.149,60.057L508.149,60.057z M506.862,53.31l-2.154-11.199l-4.665,11.199H506.862L506.862,53.31z M546.745,60.624
		c2.57-2.765,4.111-6.442,4.624-11.042c0.575-5.164-0.39-9.14-2.896-11.911c-2.505-2.778-6.341-4.164-11.513-4.164
		c-5.078,0-9.183,1.422-12.328,4.258c-3.146,2.843-5.003,6.826-5.574,11.954c-0.589,5.281,0.573,9.38,3.483,12.296
		c2.459,2.467,6.059,3.7,10.796,3.7c3.206,0,5.919-0.464,8.147-1.385c0.473,0.448,1.318,1.124,2.539,2.022
		c1.213,0.899,2.462,1.669,3.73,2.321l3.263-5.39c-0.882-0.413-1.589-0.776-2.098-1.087
		C548.573,61.986,547.848,61.457,546.745,60.624L546.745,60.624z M539.917,55.683c-0.358-0.239-0.688-0.473-0.99-0.697
		c-1.277-0.965-2.14-1.56-2.593-1.784c-0.447-0.225-1.093-0.421-1.932-0.573l-1.894,3.461c1.669,0.696,2.865,1.429,3.591,2.212
		c-0.595,0.124-1.219,0.188-1.872,0.188c-2.023,0-3.543-0.688-4.558-2.061c-1.009-1.371-1.323-3.757-0.944-7.159
		c0.325-2.916,1.159-5.063,2.51-6.434c1.342-1.371,2.971-2.061,4.893-2.061c2.061,0,3.596,0.674,4.621,2.017
		c1.019,1.35,1.356,3.591,1.006,6.731C541.452,52.258,540.838,54.312,539.917,55.683L539.917,55.683z M575.683,34.029h9.62
		l-2.068,18.563c-0.203,1.836-0.688,3.576-1.442,5.209c-0.756,1.639-1.814,3.067-3.178,4.294c-1.362,1.227-2.741,2.082-4.14,2.583
		c-1.948,0.688-4.235,1.037-6.854,1.037c-1.517,0-3.158-0.109-4.927-0.319c-1.768-0.21-3.223-0.631-4.357-1.263
		c-1.133-0.63-2.136-1.523-3-2.684c-0.872-1.161-1.421-2.357-1.654-3.591c-0.374-1.98-0.475-3.735-0.305-5.267l2.066-18.563h9.62
		l-2.117,19.005c-0.188,1.697,0.135,3.024,0.964,3.976c0.838,0.958,2.089,1.436,3.758,1.436c1.646,0,2.998-0.471,4.046-1.413
		c1.04-0.937,1.66-2.271,1.853-3.998L575.683,34.029L575.683,34.029z M589.169,34.029h9.663l-3.471,31.164h-9.663L589.169,34.029
		L589.169,34.029z M594.744,25.804h7.442l-7.585,6.354h-4.134L594.744,25.804z"/>
</g>
</svg>
